<svg class="h-10 w-10 text-rocket-white" xmlns="http://www.w3.org/2000/svg" fill="none" viewBox="0 0 24 24" stroke-width="1.5" stroke="currentColor"><path stroke-linecap="round" stroke-linejoin="round" d="M12.75 3.03v.568c0 .334.148.65.405.864l1.068.89c.442.369.535 1.024.217 1.464l-.69.825a1.125 1.125 0 01-1.667.02l-.243-.243a.675.675 0 00-.95.004l-1.076 1.076a.675.675 0 00-.004.95l.243.243a1.125 1.125 0 01-.02 1.667l-.825.69a1.125 1.125 0 01-1.464.217l-.89-1.068a1.125 1.125 0 00-.864-.405v-.568c0-.334-.148-.65-.405-.864l-1.068-.89a1.125 1.125 0 01-.217-1.464l.69-.825a1.125 1.125 0 011.667-.02l.243.243.95.004 1.076-1.076a.675.675 0 00-.004-.95l-.243-.243a1.125 1.125 0 01.02-1.667l.825-.69a1.125 1.125 0 011.464-.217l.89 1.068c.257.214.405.53.405.864z" /><path stroke-linecap="round" stroke-linejoin="round" d="M12 21a8.966 8.966 0 01-5.982-2.275 1.125 1.125 0 01-1.125-2.062c.528-.285 1.097-.502 1.7-.657a4.125 4.125 0 014.243 4.243c-.155.603-.372 1.172-.657 1.7a1.125 1.125 0 01-2.062-1.125A6.731 6.731 0 0012 19.5a6.731 6.731 0 005.242-2.453 1.125 1.125 0 01-1.125 2.062A8.966 8.966 0 0112 21z" /></svg>